<svg version="1" xmlns="http://www.w3.org/2000/svg" width="1706.667" height="1706.667" viewBox="0 0 1280.000000 1280.000000"><path d="M799.5 311.1c-3.3.4-7.1 1-8.5 1.3-1.4.2-4.1.7-6.1 1-14.2 2.1-40.2 12.7-55.4 22.6-61.9 40.3-87.1 117.4-60.5 184.5 4.6 11.6 8.9 19 32.3 56 35.1 55.4 42.1 66.4 43.8 69.3.9 1.5 8.6 13.7 17.1 27.1l15.5 24.4-7.4 12.1c-4.1 6.7-12.4 20-18.4 29.6-6 9.6-11.2 18.3-11.6 19.2-.3 1-.9 1.8-1.4 1.8-.5 0-.9.5-.9 1 0 .6-1.5 3.3-3.4 6.1l-3.3 4.9-4.4-7c-2.4-3.9-6.2-9.9-8.4-13.3-2.2-3.4-19.1-29.8-37.4-58.7-18.4-28.9-36.2-56.8-39.6-62-3.3-5.2-19.3-30.3-35.5-55.8-16.2-25.4-31.2-48.8-33.2-52-2-3.1-4.6-7.3-5.8-9.2-1.1-1.9-5.8-9.4-10.5-16.5-4.6-7.2-10.9-17.1-14-22-3.1-5-10.6-16.9-16.8-26.5-6.2-9.6-15.7-24.8-21.1-33.7-24.8-40.3-40.2-55.9-65.7-66.3-26.6-10.8-55.9-9.7-81 3-24 12.3-41.5 36.2-46.4 63.5-2.2 12-.5 39.7 2.6 42.9.5.6.9 1.7.9 2.6 0 3.1 7.9 17 21 36.9 7.4 11.3 22.5 34.1 33.5 50.8 11 16.7 25.8 39.2 33 50 7.1 10.9 21.2 32.4 31.4 47.8 10.1 15.4 20.9 31.8 24 36.5 3.1 4.7 5.9 8.6 6.3 8.8.5.2.8.8.8 1.2 0 .5 11.1 17.7 24.7 38.2 13.5 20.5 28.8 43.6 33.8 51.3 17.9 27.3 81.5 123.9 95.1 144.4 1.6 2.4 3.4 5.1 3.9 6 6.5 10.8 19.3 28.5 21.9 30.5 5.7 4.3 11.4 6.1 19.6 6.1 6.4-.1 8.3-.5 12.9-3 3-1.7 6.9-4.8 8.7-7 1.8-2.2 13.1-18.9 25-37 11.9-18.2 27.6-42 34.9-53.1 7.3-11 15.2-23.4 17.5-27.5 37.5-64.4 82.8-140.5 100.1-167.9 6-9.6 11.3-18.2 11.6-19 .4-.8 1.1-2 1.6-2.5.5-.6 1.8-2.7 3-4.8 1.2-2 10-16.2 19.5-31.5 9.6-15.2 17.9-28.6 18.5-29.7.7-1.1 2.6-4.2 4.3-7 28.4-45.3 33.5-54.2 38.7-68 2.9-7.7 5.7-17.2 5.8-19.7 0-.4.5-2.2 1-4 1.7-6 2.4-14.2 2.4-29.3-.1-17.9-.7-23.2-5.1-39.2-6.6-24.7-19-45.9-37.9-64.8-21.8-21.9-47.3-35.2-79.7-41.6-11.1-2.2-36.3-3.2-47.3-1.8zm38.9 61.4c43.9 9.3 72.1 44.6 71.1 89-.5 22.4-3.8 30-31.4 74.5-10.1 16.2-23.6 37.8-29.9 48-6.2 10.2-12.4 20.1-13.7 22-1.2 1.9-6.5 10.4-11.6 18.7-5.2 8.4-9.6 15.3-9.9 15.3-.4 0-11.6-17.1-18.5-28.5-1.1-1.8-10.3-16.4-20.5-32.4-34.2-53.8-40.3-63.6-43.8-69.6-14.8-25.8-15.5-60.1-1.7-85.9 18.1-33.9 52.3-54 90.5-53.1 6.3.2 15.1 1.1 19.4 2zm-425.1 31.1c6.3 2 16.3 8.9 20.3 14 1.6 2 3.4 4.2 4 4.8 1.5 1.6 8.8 13 19.7 30.6 5.2 8.5 28.9 45.9 52.5 83 23.7 37.1 49.5 77.6 57.3 90 7.9 12.4 17.1 26.8 20.4 32 3.4 5.2 10.6 16.5 16 25 5.3 8.5 12.1 19.1 14.9 23.5 7.1 11 42.5 66.5 45.6 71.5 4.5 7.3 28.2 44.4 30.1 47.2 2.5 3.5 2.5 3.5-1.4 9.3-1.8 2.8-4.6 7.2-6.2 9.9-3.5 5.8-4.2 7-15.4 25-4.6 7.5-8.6 13.6-9 13.6-.3 0-5.8-8-12.3-17.8-6.4-9.7-22.6-34.4-36.1-54.7-13.4-20.4-27.8-42.2-31.9-48.5-4.1-6.3-15.5-23.7-25.3-38.5-9.8-14.9-22.4-34-28-42.5-5.6-8.5-17.7-27-27-41s-20.9-31.8-26-39.5c-10.5-16-55.1-83.8-82.1-124.7-23.6-35.6-22.9-34.4-22.8-44.3.1-15.2 7.2-24.5 21.6-28.5 7.3-2 13.8-1.8 21.1.6z"/><path d="M804.1 423c-2.8.8-5.6 2.1-6.3 2.8-.6.6-1.8 1.2-2.5 1.2-2.1 0-11.9 10.3-14.3 15-3.3 6.5-4.2 9.7-4.5 17.3-1.7 36.1 41.7 55.3 67.5 29.8 8-8 11.8-17.3 11.5-28.7-.3-8.2-1-11.3-4.2-17.8-8.3-16.6-29.2-25.3-47.2-19.6z"/></svg>