<?xml version="1.0" encoding="UTF-8" standalone="no"?><!DOCTYPE svg PUBLIC "-//W3C//DTD SVG 1.1//EN" "http://www.w3.org/Graphics/SVG/1.1/DTD/svg11.dtd"><svg width="100%" height="100%" viewBox="0 0 1280 800" version="1.1" xmlns="http://www.w3.org/2000/svg" xmlns:xlink="http://www.w3.org/1999/xlink" xml:space="preserve" xmlns:serif="http://www.serif.com/" style="fill-rule:evenodd;clip-rule:evenodd;stroke-linecap:round;stroke-linejoin:round;stroke-miterlimit:1.5;"><path id="_2" serif:id="2" d="M813.255,457.226l-106.094,-167.538c-25.391,-40.097 -25.076,-90.867 0.809,-130.66c51.852,-79.713 170.559,-77.724 215.904,0.11c22.17,38.301 21.435,85.331 -1.922,122.952c-23.35,37.641 -65.366,105.335 -108.697,175.136l-79.274,134.786l-70.829,107.988c0,0 -255.885,-388.536 -314.247,-477.152c-15.956,-24.226 -10.417,-62.183 16.2,-80.346c14.686,-10.062 36.463,-14.318 55.104,-8.552c32.165,9.949 43.845,32.352 67.277,71.054l244.267,383.51l-65.741,105.893l67.969,-102.395l-2.228,-3.498l38.959,-62.753l42.543,-68.535Z" style="fill:none;stroke:#1d2b3b;stroke-width:60px;"/><circle cx="816" cy="221" r="40" style="fill:#1d2b3b;"/></svg>