<?xml version="1.0" encoding="UTF-8" standalone="no"?><!DOCTYPE svg PUBLIC "-//W3C//DTD SVG 1.1//EN" "http://www.w3.org/Graphics/SVG/1.1/DTD/svg11.dtd"><svg width="100%" height="100%" viewBox="0 0 683 410" version="1.1" xmlns="http://www.w3.org/2000/svg" xmlns:xlink="http://www.w3.org/1999/xlink" xml:space="preserve" xmlns:serif="http://www.serif.com/" style="fill-rule:evenodd;clip-rule:evenodd;stroke-linecap:round;stroke-linejoin:round;stroke-miterlimit:1.41421;"><g><rect x="0" y="0.221" width="682.247" height="409.778" style="fill:#ebf0f4;fill-rule:nonzero;"/><path d="M155.622,260.594c-26.632,-144.585 84.086,-220.386 181.221,-220.798c114.089,-0.485 194.113,89.332 179.446,189.741c-14.278,97.751 -80.536,152.258 -80.536,152.258l-190.131,0c0,0 -76.073,-45.594 -90,-121.201Z" style="fill:#fff;fill-rule:nonzero;"/><path d="M295.265,381.795c-1.479,-16.011 -47.68,-154.657 -98.663,-156.165c-38.56,-1.14 12.795,71.239 12.098,107.53c-18.284,-14.18 -55.395,-42.082 -68.627,-30.948c-15.228,12.812 16.978,46.973 31.206,65.011c-11.392,-8.501 -37.435,-4.611 -20.492,14.572c11.453,0 144.478,0 144.478,0Z" style="fill:#1d2b3b;fill-rule:nonzero;"/><path d="M295.265,381.795c-1.479,-16.011 -47.68,-154.657 -98.663,-156.165c-38.56,-1.14 12.795,71.239 12.098,107.53c-18.284,-14.18 -55.395,-42.082 -68.627,-30.948c-15.228,12.812 16.978,46.973 31.206,65.011c-11.392,-8.501 -37.435,-4.611 -20.492,14.572c11.453,0 144.478,0 144.478,0Z" style="fill:none;stroke:#0080c6;stroke-width:0.5px;"/><path d="M270.12,381.795c0,0 -28.096,-111.39 -77.401,-149.044" style="fill:none;stroke:#f6f6f3;stroke-width:0.5px;"/><path d="M206.037,227.437c0,0 3.277,10.003 1.428,19.32" style="fill:none;stroke:#f6f6f3;stroke-width:0.5px;"/><path d="M210.445,229.292c0,0 5.45,11.229 1.2,22.458" style="fill:none;stroke:#f6f6f3;stroke-width:0.5px;"/><path d="M137.965,303.266c-15.227,12.811 20.889,45.278 33.314,63.957" style="fill:none;stroke:#393a3b;stroke-width:0.5px;"/><path d="M171.279,367.223c6.526,8.691 11.53,14.572 11.53,14.572l-6.582,0c0,0 0.262,-4.65 -4.948,-14.572Z" style="fill:#393a3b;fill-rule:nonzero;"/><path d="M171.279,367.223c6.526,8.691 11.53,14.572 11.53,14.572l-6.582,0c0,0 0.262,-4.65 -4.948,-14.572Z" style="fill:#0c57fb;stroke:#0c57fb;stroke-width:0.5px;"/><path d="M218.404,381.795c0,0 -39.209,-59.501 -78.331,-79.583" style="fill:none;stroke:#f6f6f3;stroke-width:0.5px;"/><path d="M187.928,342.64c0,0 -15.047,6.85 -29.517,8.175" style="fill:none;stroke:#f6f6f3;stroke-width:0.5px;"/><path d="M192.361,347.716c0,0 -18.407,7.401 -30.519,7.229" style="fill:none;stroke:#f6f6f3;stroke-width:0.5px;"/><path d="M171.279,367.223c-11.392,-8.501 -45.925,-7.361 -20.492,14.572" style="fill:none;stroke:#393a3b;stroke-width:0.5px;"/><path d="M167.453,381.795c0,0 -8.072,-10.507 -19.653,-15.518" style="fill:none;stroke:#f6f6f3;stroke-width:0.5px;"/><path d="M160.398,374.492c0,0 -8.888,-0.281 -14.34,0.177" style="fill:none;stroke:#f6f6f3;stroke-width:0.5px;"/><path d="M264.292,269.878c-0.667,-4 -1.834,-10.344 -1.584,-12.594c0,0 0.682,-2.591 0,-3.682c-0.682,-1.091 2.591,-5.454 0,-5.999c-2.59,-0.546 -3.314,3.904 -4.09,0.817c-0.66,-2.625 -4.956,-5.116 -7.226,-0.817c-1.913,3.621 -3.273,16.361 0.817,16.361c1.31,0 2.578,-0.391 3.697,-0.924c0.096,0.552 0.323,1.415 0.402,2.527c0.106,1.457 -0.082,2.894 -0.435,4.092c-0.522,1.768 -1.206,3.76 -2.573,5.305c-6.643,7.515 -12.977,12.276 -17.762,16.918c-4.065,3.943 -7.014,7.802 -8.087,13.191c-4.487,4.277 -7.761,7.436 -7.761,7.436c0,0 -3.751,-3.802 -8.5,-8.796c-4.014,-4.221 -8.741,-9.296 -12.516,-13.645c-3.865,-4.454 -6.732,-8.149 -6.812,-9.39c-0.125,-1.942 -2.435,-3.933 -4.86,-7.188l-1.765,-2.511l-8.224,-14.382c-0.291,-0.509 -0.941,-0.686 -1.45,-0.395l-0.776,0.444c-0.51,0.293 -0.686,0.94 -0.395,1.45l5.629,9.842l0,0.002c-2.108,6.57 2.904,12.288 6.852,16.334c3.948,4.045 2.741,2.847 2.741,2.847l0.169,0.214l-5.493,4.311c-2.812,-2.622 -5.671,-4.68 -8.618,-5.643c-5.306,-1.734 -12.578,6.311 -19.966,17.931l-0.25,0.395c0,0 -8.667,11.132 -10.122,12.894l-39.065,51.754c-1.434,2.048 -9.285,5.571 -15.492,7.734c-2.406,0.839 -4.278,-0.5 -5.273,-0.296c-2.327,0.476 -1.564,3.107 -1.564,3.107l0.051,0.01c0,0 3.76,2.263 4.883,2.263l45.867,0c0,0 -0.51,-0.629 -0.592,-1.671c-0.354,-4.515 -1.235,-5.374 0.069,-7.731l0.085,-0.215c2.03,0.847 3.747,1.367 6.037,2.173c11.308,-21.474 22.138,-38.38 28.545,-47.871c0,0 1.571,3.981 2.87,6.586c0,0 21.534,48.729 50.294,48.729c12.446,0 23.98,-23.647 32.101,-46.526l5.83,-18.046c2.412,-8.19 4.179,-15.213 5.145,-19.542l0.547,-20.643c-0.508,-3.092 -1.114,-5.564 -1.38,-7.16Z" style="fill:#f6f6f3;fill-rule:nonzero;"/><path d="M522.664,257.504c-7.971,25.973 -19.923,48.162 -32.44,66.293" style="fill:none;stroke:#393a3b;stroke-width:0.5px;stroke-dasharray:3,3;"/><path d="M406.751,381.795c6.033,-27.485 24.478,-88.846 44.569,-100.019c20.092,-11.173 15.728,29.14 13.301,47.418c20.502,-34.645 69.344,-69.285 79.846,-60.52c10.502,8.767 -30.863,66.776 -38.555,81.055c14.567,-8.478 58.89,-20.669 23.807,32.066l-122.968,0Z" style="fill:#1d2b3b;fill-rule:nonzero;"/><path d="M406.751,381.795c6.033,-27.485 24.478,-88.846 44.569,-100.019c20.092,-11.173 15.728,29.14 13.301,47.418c20.502,-34.645 69.344,-69.285 79.846,-60.52c10.502,8.767 -30.863,66.776 -38.555,81.055c14.567,-8.478 58.89,-20.669 23.807,32.066l-122.968,0Z" style="fill:none;stroke:#0080c6;stroke-width:0.5px;"/><path d="M475.981,381.795c8.832,-3.709 20.373,-17.823 30.3,-31.854c0,0 -10.304,20.82 -22.389,31.854c-5.479,0 -7.911,0 -7.911,0Z" style="fill:#393a3b;fill-rule:nonzero;"/><path d="M475.981,381.795c8.832,-3.709 20.373,-17.823 30.3,-31.854c0,0 -10.304,20.82 -22.389,31.854c-5.479,0 -7.911,0 -7.911,0Z" style="fill:none;stroke:#393a3b;stroke-width:0.5px;"/><path d="M420.364,379.586c0,0 9.692,-42.717 33.067,-95.633" style="fill:none;stroke:#f6f6f3;stroke-width:0.5px;"/><path d="M437.719,381.795c10.82,-11.105 24.083,-38.626 26.902,-52.601c0,0 0,22.831 -19.559,52.601c-6.285,0 -7.343,0 -7.343,0Z" style="fill:#393a3b;fill-rule:nonzero;"/><path d="M437.719,381.795c10.82,-11.105 24.083,-38.626 26.902,-52.601c0,0 0,22.831 -19.559,52.601c-6.285,0 -7.343,0 -7.343,0Z" style="fill:none;stroke:#393a3b;stroke-width:0.5px;"/><path d="M497.67,381.795c0,0 18.421,-26.415 42.807,-36.733" style="fill:none;stroke:#f6f6f3;stroke-width:0.5px;"/><path d="M505.912,371.615c9.402,-2.791 20.045,-3.388 32.609,-4.057" style="fill:none;stroke:#f6f6f3;stroke-width:0.5px;"/><path d="M510.17,367.051c0,0 16.173,-5.07 31.566,-5.758" style="fill:none;stroke:#f6f6f3;stroke-width:0.5px;"/><path d="M525.12,321.272c-7.884,12.344 -33.025,53.756 -49.139,60.523" style="fill:none;stroke:#393a3b;stroke-width:0.5px;"/><path d="M556.289,329.194c0,4.191 -3.397,7.59 -7.589,7.59c-4.191,0 -7.59,-3.399 -7.59,-7.59c0,-4.192 3.399,-7.589 7.59,-7.589c4.192,0 7.589,3.397 7.589,7.589Z" style="fill:#393a3b;fill-rule:nonzero;"/><path d="M556.289,329.194c0,4.191 -3.397,7.59 -7.589,7.59c-4.191,0 -7.59,-3.399 -7.59,-7.59c0,-4.192 3.399,-7.589 7.59,-7.589c4.192,0 7.589,3.397 7.589,7.589Z" style="fill:none;stroke:#393a3b;stroke-width:0.5px;"/><path d="M543.872,335.05c0,0 -18.986,16.388 -21.604,46.745" style="fill:none;stroke:#393a3b;stroke-width:0.5px;stroke-dasharray:3,3;"/><path d="M472.259,361.293c0,0 21.205,-46.936 70.001,-93.873" style="fill:none;stroke:#f6f6f3;stroke-width:0.5px;"/><path d="M507.111,306.469c16.511,-3.008 30.361,-9.251 30.361,-9.251" style="fill:none;stroke:#f6f6f3;stroke-width:0.5px;"/><path d="M503.528,311.147c0,0 16.928,-2.213 29.349,-5.527" style="fill:none;stroke:#f6f6f3;stroke-width:0.5px;"/><path d="M547.369,266.74c5.627,4.696 -3.633,23.526 -14.627,42.194" style="fill:none;stroke:#393a3b;stroke-width:0.5px;"/><path d="M435.013,330.7c0,0 -4.22,-7.681 -8.087,-12.782" style="fill:none;stroke:#f6f6f3;stroke-width:0.5px;"/><path d="M433.67,334.591c0,0 -5.654,-8.848 -8.393,-12.718" style="fill:none;stroke:#f6f6f3;stroke-width:0.5px;"/><path d="M461.036,330.183l-0.001,-0.01c-0.983,-13.42 -1.978,-26.204 -2.708,-33.708c-1.426,-14.668 -6.705,-53.666 -6.705,-53.666c0,0 11.499,31.997 11.999,40.331c0.5,8.332 -2.585,47.035 -2.586,47.043c0.001,0.003 0.001,0.007 0.001,0.01Zm20.92,47.088c-1.665,-0.539 -3.384,-1.878 -5.699,-4.596c-3.718,-4.363 -2.072,-12.086 -2.072,-12.086c3.007,-17.744 8.367,-68.09 8.267,-78.954c-0.068,-7.408 -4.496,-31.989 -16.801,-82.756l0.001,0c6.188,2.022 12.623,3.108 13.644,-0.626c3.243,-11.857 -15.174,-45.458 -19.34,-50.291c-4.167,-4.834 -18.833,-3.167 -18.833,-3.167c0,0 -0.002,2.497 -4.502,3.831c-4.648,1.378 -6.333,-0.747 -6.333,-0.747c-3.436,2.187 -12.145,4.74 -14.184,11.228l0.631,54.021c1.954,10.326 7.219,29.498 7.219,29.498c0,0 1.032,-0.278 2.37,-0.855l0,-0.001l2.411,3.645l-0.446,1.278c0,0 14.674,96.387 23.844,130.813l0.082,-0.109c-0.643,0.752 -0.926,1.629 -0.901,2.401c0.038,1.106 0.308,1.997 0.308,1.997l12.999,0c0,0 -0.046,-0.707 -0.132,-1.997c-0.086,-1.291 -0.211,-3.166 -0.368,-5.501c4.251,3.209 5.332,4.498 10.168,7.498c3.667,0 8.667,0 8.667,0c0,0 0.375,-0.928 0.438,-1.959c0.062,-1.03 -0.188,-2.161 -1.438,-2.565Z" style="fill:#f6f6f3;fill-rule:nonzero;"/><path d="M569.25,217.095l14.333,0" style="fill:none;stroke:#393a3b;stroke-width:0.5px;"/><path d="M439.099,142.099c-0.599,-2.753 -1.137,-6.614 -1.137,-6.614l-0.001,0c0.217,-1.288 0.335,-2.687 0.376,-4.108c0.037,-1.257 0.015,-2.528 -0.048,-3.749c-0.368,-7.156 -4.539,-1.47 -6.541,-1c-2.126,0.5 -9.307,-4.149 -5.848,4.857c0.171,0.442 0.366,0.922 0.581,1.423c0.769,1.782 1.812,3.837 3.005,5.498l-0.004,0.001c0,0 1.473,5.305 0.806,9.472c0,0 1.685,2.124 6.333,0.747c4.5,-1.333 4.502,-3.831 4.502,-3.831c0,0 -1.652,-0.984 -2.024,-2.696Z" style="fill:#fff;fill-rule:nonzero;"/><path d="M589.553,217.095l3.125,0" style="fill:none;stroke:#393a3b;stroke-width:0.5px;"/><path d="M121.768,111.354l-7.167,0" style="fill:none;stroke:#393a3b;stroke-width:0.5px;"/><path d="M97.695,111.354l-17.446,0" style="fill:none;stroke:#393a3b;stroke-width:0.5px;"/><path d="M111.634,111.354l-3.125,0" style="fill:none;stroke:#393a3b;stroke-width:0.5px;"/><path d="M429.482,138.407c0,0 1.473,5.305 0.806,9.472c-3.436,2.187 -12.145,4.74 -14.184,11.229l0.631,54.02c1.954,10.326 7.219,29.498 7.219,29.498c0,0 4.382,-1.184 6.799,-3.72" style="fill:none;stroke:#393a3b;stroke-width:0.5px;"/><path d="M425.9,131.485c0.171,0.442 0.366,0.922 0.581,1.423c1.735,4.021 4.863,9.443 7.975,8.554c2.768,-0.791 3.743,-5.333 3.881,-10.084c0.037,-1.258 0.015,-2.529 -0.048,-3.75c-0.368,-7.156 -4.539,-1.47 -6.541,-1c-2.126,0.5 -9.308,-4.149 -5.848,4.857Z" style="fill:none;stroke:#393a3b;stroke-width:0.5px;"/><path d="M439.099,142.099c0.511,1.675 2.024,2.696 2.024,2.696c0,0 14.666,-1.667 18.833,3.167c4.166,4.833 22.583,38.434 19.34,50.291c-2.045,7.476 -25.799,-4.369 -25.799,-4.369" style="fill:none;stroke:#393a3b;stroke-width:0.5px;"/><path d="M430.288,147.879c0,0 1.685,2.125 6.333,0.747c4.5,-1.333 4.502,-3.831 4.502,-3.831" style="fill:none;stroke:#393a3b;stroke-width:0.5px;"/><path d="M450.754,181.515l-11.383,1.639c-0.593,0.085 -1.142,-0.326 -1.226,-0.918c-0.086,-0.592 0.325,-1.141 0.918,-1.226l11.381,-1.64c0.593,-0.085 1.142,0.326 1.228,0.918c0.085,0.592 -0.326,1.141 -0.918,1.227Z" style="fill:#393a3b;fill-rule:nonzero;"/><path d="M450.754,181.515l-11.383,1.639c-0.593,0.085 -1.142,-0.326 -1.226,-0.918c-0.086,-0.592 0.325,-1.141 0.918,-1.226l11.381,-1.64c0.593,-0.085 1.142,0.326 1.228,0.918c0.085,0.592 -0.326,1.141 -0.918,1.227Z" style="fill:none;stroke:#393a3b;stroke-width:0.5px;"/><path d="M457.003,183.256c4.036,1.628 10.482,3.647 11.953,4.372" style="fill:none;stroke:#393a3b;stroke-width:0.5px;"/><path d="M457.003,183.256c0.846,0.449 -0.04,7.123 -3.047,10.373" style="fill:none;stroke:#393a3b;stroke-width:0.5px;"/><path d="M426.492,132.907c-1.89,-1.216 -8.86,-8.818 -3.578,-10.776c2.359,-0.875 2.38,-11.628 6.924,-5.878c1.787,2.262 3.405,0.631 5.451,-3.561c1.636,-3.353 6.442,-0.467 6.125,9.374c-0.187,5.812 -3.03,9.312 -3.03,9.312l-0.047,0c0.037,-1.258 0.012,-2.529 -0.048,-3.75c-0.215,-4.416 -4.539,0.531 -6.541,1.002c-2.126,0.5 -8.042,-2.752 -5.848,2.855c0.173,0.441 0.366,0.922 0.581,1.423l0.011,-0.001Z" style="fill:#393a3b;fill-rule:nonzero;"/><path d="M426.492,132.907c-1.89,-1.216 -8.86,-8.818 -3.578,-10.776c2.359,-0.875 2.38,-11.628 6.924,-5.878c1.787,2.262 3.405,0.631 5.451,-3.561c1.636,-3.353 6.442,-0.467 6.125,9.374c-0.187,5.812 -3.03,9.312 -3.03,9.312l-0.047,0c0.037,-1.258 0.012,-2.529 -0.048,-3.75c-0.215,-4.416 -4.539,0.531 -6.541,1.002c-2.126,0.5 -8.042,-2.752 -5.848,2.855c0.173,0.441 0.366,0.922 0.581,1.423l0.011,-0.001Z" style="fill:#0c57fb;stroke:#0c57fb;stroke-width:0.5px;"/><path d="M426.324,241.926c0,0 0.911,1.364 2.411,3.489" style="fill:none;stroke:#393a3b;stroke-width:0.5px;"/><path d="M428.289,246.693c0,0 14.674,96.387 23.844,130.813" style="fill:none;stroke:#393a3b;stroke-width:0.5px;"/><path d="M462.207,376.728c-7.889,-2.948 -10.976,0.597 -10.893,3.07c0.038,1.106 0.308,1.997 0.308,1.997l12.999,0c0,0 -0.046,-0.707 -0.132,-1.997c-0.731,-10.984 -4.305,-64.243 -6.162,-83.333c-1.426,-14.668 -6.705,-53.666 -6.705,-53.666c0,0 11.499,31.997 11.999,40.331c0.5,8.333 -2.586,47.043 -2.586,47.043" style="fill:none;stroke:#393a3b;stroke-width:0.5px;"/><path d="M456.851,375.632c-2.809,-2.329 -4.964,-3.714 -3.658,-4.807c1.307,-1.092 3.658,4.807 3.658,4.807Z" style="fill:none;stroke:#393a3b;stroke-width:0.5px;"/><path d="M456.881,375.619c0,0 1.847,-6.376 3.633,-5.058c1.787,1.318 -3.633,5.058 -3.633,5.058Z" style="fill:none;stroke:#393a3b;stroke-width:0.5px;"/><path d="M473.123,364.797c0,0 -4.806,0.525 -9.611,0.517" style="fill:none;stroke:#393a3b;stroke-width:0.5px;"/><path d="M465.651,198.879c12.305,50.767 16.733,75.348 16.801,82.756c0.1,10.864 -5.26,61.21 -8.267,78.954" style="fill:none;stroke:#393a3b;stroke-width:0.5px;"/><path d="M464.121,374.297c4.251,3.209 5.332,4.498 10.168,7.498c3.667,0 8.667,0 8.667,0c0,0 0.375,-0.928 0.438,-1.959c0.062,-1.03 -0.188,-2.161 -1.438,-2.565c-1.665,-0.539 -3.64,-1.679 -5.699,-4.596" style="fill:none;stroke:#393a3b;stroke-width:0.5px;"/><path d="M472.259,369.256c1.655,-2.804 4.807,-5.137 5.625,-4.137c0.816,1 -5.625,4.137 -5.625,4.137Z" style="fill:none;stroke:#393a3b;stroke-width:0.5px;"/><path d="M472.259,369.256c0,0 5.767,-1.969 5.696,-0.22c-0.071,1.75 -5.696,0.22 -5.696,0.22Z" style="fill:none;stroke:#393a3b;stroke-width:0.5px;"/><path d="M428.149,225.617c0,0 19.274,-1.021 41.814,-8.655" style="fill:none;stroke:#393a3b;stroke-width:0.5px;"/><path d="M428.289,246.693c0,0 2.384,-6.565 3.55,-12.232" style="fill:none;stroke:#393a3b;stroke-width:0.5px;"/><path d="M424.359,188.256c0,0 3.93,32.024 3.93,41.281" style="fill:none;stroke:#393a3b;stroke-width:0.5px;"/><path d="M394.881,85.129l-87.47,0l-26.314,0c-5.805,0 -10.652,4.723 -10.802,10.529l0,3l-1.196,46.137l-1.078,41.601l-4.714,181.87l0.004,3c-0.151,5.806 4.45,10.529 10.256,10.529l113.625,0c7.472,0 13.686,-6.057 13.88,-13.529l2.851,-109.993l4.137,-159.615c0.193,-7.472 -5.706,-13.529 -13.179,-13.529Z" style="fill:#fff;fill-rule:nonzero;"/><path d="M370.491,88.129l-0.075,2.896c-0.126,4.886 -4.189,8.847 -9.076,8.847l-17.252,0l-14.989,0l-8.144,0c-4.886,0 -8.745,-3.961 -8.618,-8.847l0.075,-2.896l58.079,0Z" style="fill:#0c57fb;fill-rule:nonzero;"/><path d="M263.307,368.266l4.714,-181.87l1.078,-41.601l1.196,-46.137" style="fill:none;stroke:#393a3b;stroke-width:0.5px;"/><path d="M394.881,85.129c7.473,0 13.372,6.057 13.179,13.529l-4.137,159.615l-2.851,109.993c-0.194,7.472 -6.408,13.529 -13.88,13.529l-49.912,0" style="fill:none;stroke:#393a3b;stroke-width:0.5px;"/><path d="M266.308,371.266c-0.151,5.806 4.45,10.529 10.256,10.529l53.628,0" style="fill:none;stroke:#393a3b;stroke-width:0.5px;"/><path d="M398.072,368.266c-0.15,5.806 -4.997,10.529 -10.802,10.529" style="fill:none;stroke:#393a3b;stroke-width:0.5px;"/><path d="M368.49,88.129l26.314,0c5.805,0 10.406,4.723 10.256,10.529" style="fill:none;stroke:#393a3b;stroke-width:0.5px;"/><path d="M273.295,98.658c0.15,-5.806 4.997,-10.529 10.802,-10.529l26.314,0" style="fill:none;stroke:#393a3b;stroke-width:0.5px;"/><path d="M342.087,99.872l17.252,0c4.886,0 8.949,-3.961 9.076,-8.847l0.075,-2.896" style="fill:none;stroke:#393a3b;stroke-width:0.5px;"/><path d="M310.411,88.129l-0.076,2.896c-0.126,4.886 3.732,8.847 8.618,8.847l8.145,0" style="fill:none;stroke:#393a3b;stroke-width:0.5px;"/><path d="M327.275,93l12.049,0" style="fill:none;stroke:#1d2b3b;stroke-width:0.5px;"/><path d="M355.456,93c-0.028,1.071 -0.919,1.939 -1.989,1.939c-1.071,0 -1.917,-0.868 -1.89,-1.939c0.028,-1.072 0.919,-1.94 1.99,-1.94c1.071,0 1.916,0.868 1.889,1.94Z" style="fill:#393a3b;fill-rule:nonzero;"/><path d="M355.456,93c-0.028,1.071 -0.919,1.939 -1.989,1.939c-1.071,0 -1.917,-0.868 -1.89,-1.939c0.028,-1.072 0.919,-1.94 1.99,-1.94c1.071,0 1.916,0.868 1.889,1.94Z" style="fill:none;stroke:#1d2b3b;stroke-width:0.5px;"/><path d="M282.416,94l19.666,0" style="fill:none;stroke:#393a3b;stroke-width:0.5px;"/><path d="M374.072,94l20.579,0" style="fill:none;stroke:#393a3b;stroke-width:0.5px;"/><path d="M330.035,219.72l-36.069,0c-3.546,0 -6.347,-2.874 -6.255,-6.421l1.11,-42.838l1.154,-44.489c0.091,-3.546 3.041,-6.42 6.587,-6.42l57.917,0c3.545,0 6.346,2.874 6.253,6.42" style="fill:none;stroke:#393a3b;stroke-width:0.5px;"/><path d="M360.137,148.976l-1.667,64.323c-0.092,3.547 -3.041,6.421 -6.588,6.421" style="fill:none;stroke:#393a3b;stroke-width:0.5px;"/><path d="M354.479,119.552l-57.917,0c-3.546,0 -6.496,2.874 -6.587,6.42l-0.15,5.753c0.092,-3.546 3.042,-6.421 6.588,-6.421l57.916,0c3.546,0 6.347,2.875 6.255,6.421l0.148,-5.753c0.093,-3.546 -2.708,-6.42 -6.253,-6.42Z" style="fill:#393a3b;fill-rule:nonzero;"/><path d="M354.479,119.552l-57.917,0c-3.546,0 -6.496,2.874 -6.587,6.42l-0.15,5.753c0.092,-3.546 3.042,-6.421 6.588,-6.421l57.916,0c3.546,0 6.347,2.875 6.255,6.421l0.148,-5.753c0.093,-3.546 -2.708,-6.42 -6.253,-6.42Z" style="fill:none;stroke:#393a3b;stroke-width:0.5px;"/><path d="M373.151,129.559l17.166,0" style="fill:none;stroke:#393a3b;stroke-width:0.5px;"/><path d="M372.916,138.637l12.162,0" style="fill:none;stroke:#393a3b;stroke-width:0.5px;"/><path d="M372.681,147.713l14.164,0" style="fill:none;stroke:#393a3b;stroke-width:0.5px;"/><path d="M372.445,156.79l14.164,0" style="fill:none;stroke:#393a3b;stroke-width:0.5px;"/><path d="M372.21,165.867l8.159,0" style="fill:none;stroke:#393a3b;stroke-width:0.5px;"/><path d="M273.899,115.588l-1.453,56.097" style="fill:none;stroke:#393a3b;stroke-width:0.5px;"/><path d="M272.056,186.706l-0.193,7.469" style="fill:none;stroke:#393a3b;stroke-width:0.5px;"/><path d="M397.269,360.649l0.223,-8.624" style="fill:none;stroke:#393a3b;stroke-width:0.5px;"/><path d="M398.059,330.173l2.221,-85.718" style="fill:none;stroke:#393a3b;stroke-width:0.5px;"/><path d="M404.82,381.795l-10.623,0c7.473,0 13.687,-6.057 13.881,-13.529l2.851,-109.993l4.136,-159.615l3.635,269.608c-0.193,7.472 -6.407,13.529 -13.88,13.529Z" style="fill:#0c57fb;fill-rule:nonzero;stroke:#0c57fb;stroke-width:0.24px;stroke-linecap:butt;"/><path d="M404.82,381.795l-10.623,0c7.473,0 13.687,-6.057 13.881,-13.529l2.851,-109.993l4.136,-159.615l3.635,269.608c-0.193,7.472 -6.407,13.529 -13.88,13.529Z" style="fill:none;stroke:#393a3b;stroke-width:0.5px;"/><path d="M378.442,240.322l-86.282,0c-3.546,0 -6.495,2.875 -6.587,6.42l-0.617,26.306c-0.092,3.547 2.708,6.421 6.254,6.421l79.201,0l6.872,2.722l0.168,-2.722c3.547,0 6.496,-2.874 6.588,-6.421l0.658,-26.306c0.092,-3.545 -2.708,-6.42 -6.255,-6.42Z" style="fill:#f6f6f3;fill-rule:nonzero;"/><path d="M377.441,287.86c0,0 -4.985,-0.065 -7.818,0l-31.342,0l-31.658,0l-7.374,0l-8.09,0c-3.546,0 -6.495,2.875 -6.587,6.421l-0.287,6.58c-0.092,3.547 2.709,6.422 6.255,6.422l0.168,2.72l6.873,-2.72l79.2,0c3.546,0 6.495,-2.875 6.587,-6.422l0.328,-6.58c0.092,-3.546 -2.708,-6.421 -6.255,-6.421Z" style="fill:#f6f6f3;fill-rule:nonzero;"/><path d="M284.956,274.049c-0.092,3.546 2.708,6.421 6.254,6.421l79.201,0l6.872,2.721l0.168,-2.721c3.547,0 6.496,-2.875 6.588,-6.421" style="fill:none;stroke:#393a3b;stroke-width:0.5px;"/><path d="M284.285,301.862c-0.092,3.547 2.709,6.421 6.255,6.421l0.168,2.721l6.873,-2.721l79.2,0c3.546,0 6.495,-2.874 6.587,-6.421" style="fill:none;stroke:#393a3b;stroke-width:0.5px;"/><path d="M285.794,335.268l49.834,0" style="fill:#393a3b;fill-rule:nonzero;"/><path d="M285.794,335.268l49.834,0" style="fill:none;stroke:#393a3b;stroke-width:0.5px;"/><path d="M285.256,341.632l64.721,0" style="fill:#393a3b;fill-rule:nonzero;"/><path d="M285.256,341.632l64.721,0" style="fill:none;stroke:#393a3b;stroke-width:0.5px;"/><path d="M284.719,347.995l27.75,0" style="fill:#393a3b;fill-rule:nonzero;"/><path d="M284.719,347.995l27.75,0" style="fill:none;stroke:#393a3b;stroke-width:0.5px;"/><path d="M256.308,265.567c-0.054,-1.115 -0.306,-1.977 -0.403,-2.529l0.001,0.002c-1.118,0.533 -2.386,0.924 -3.697,0.924c-4.09,0 -2.73,-12.74 -0.817,-16.361c2.27,-4.299 6.566,-1.808 7.226,0.817c0.776,3.087 1.5,-1.363 4.09,-0.817c2.591,0.545 -0.682,4.908 0,5.999c0.682,1.091 0,3.682 0,3.682c0,0 7.363,-0.956 8.317,-6.682c0.955,-5.727 -1.227,-15.271 -11.726,-14.453c-10.498,0.818 -14.998,6.954 -19.088,1.909c-4.09,-5.045 -10.772,-1.363 -16.634,10.226c-5.864,11.59 -4.091,21.27 -12.817,21.407c-8.726,0.136 -1.636,8.862 2.999,10.499c4.637,1.635 11.59,-0.682 17.725,-7.364c6.136,-6.68 7.091,7.499 12.545,1.637c5.453,-5.863 12.27,-8.726 12.27,-8.726l0.009,-0.17Z" style="fill:#0c57fb;fill-rule:nonzero;stroke:#0c57fb;stroke-width:0.24px;stroke-linecap:butt;"/><path d="M256.308,265.567c-0.054,-1.115 -0.306,-1.977 -0.403,-2.529l0.001,0.002c-1.118,0.533 -2.386,0.924 -3.697,0.924c-4.09,0 -2.73,-12.74 -0.817,-16.361c2.27,-4.299 6.566,-1.808 7.226,0.817c0.776,3.087 1.5,-1.363 4.09,-0.817c2.591,0.545 -0.682,4.908 0,5.999c0.682,1.091 0,3.682 0,3.682c0,0 7.363,-0.956 8.317,-6.682c0.955,-5.727 -1.227,-15.271 -11.726,-14.453c-10.498,0.818 -14.998,6.954 -19.088,1.909c-4.09,-5.045 -10.772,-1.363 -16.634,10.226c-5.864,11.59 -4.091,21.27 -12.817,21.407c-8.726,0.136 -1.636,8.862 2.999,10.499c4.637,1.635 11.59,-0.682 17.725,-7.364c6.136,-6.68 7.091,7.499 12.545,1.637c5.453,-5.863 12.27,-8.726 12.27,-8.726l0.009,-0.17Z" style="fill:none;stroke:#393a3b;stroke-width:0.5px;"/><path d="M255.873,269.659c-0.424,1.794 -1.206,3.76 -2.573,5.305" style="fill:none;stroke:#393a3b;stroke-width:0.5px;"/><path d="M265.672,277.038c-0.508,-3.092 -1.114,-5.564 -1.38,-7.16c-0.667,-4 -1.834,-10.344 -1.584,-12.594" style="fill:none;stroke:#393a3b;stroke-width:0.5px;"/><path d="M197.672,306.46c-7.22,-7.98 -14.313,-17.944 -22,-20.457c-16.245,-5.309 -50.926,81.052 -50.926,81.052c8.401,5.151 10.679,5.565 15.594,7.296c8.394,-15.941 16.526,-29.365 22.779,-39.107c7.025,-10.943 11.681,-17.241 11.681,-17.241c0,0 22.781,63.792 47.249,63.792c12.446,0 23.98,-23.647 32.101,-46.526" style="fill:none;stroke:#393a3b;stroke-width:0.5px;"/><path d="M241.06,364.878c0,0 -10.336,-16.467 -24.141,-34.845" style="fill:none;stroke:#393a3b;stroke-width:0.5px;"/><path d="M119.193,370.623c-6.417,3.116 -16.106,6.56 -17.863,7.324c-0.94,0.408 -1.328,1.051 -1.446,1.696c-0.197,1.074 0.356,2.152 0.356,2.152l34.501,0c0,0 -0.51,-0.629 -0.592,-1.671c-0.354,-4.515 -1.235,-5.374 0.069,-7.731" style="fill:none;stroke:#393a3b;stroke-width:0.5px;"/><path d="M124.746,367.055c-0.17,0.244 -0.432,0.506 -0.771,0.783" style="fill:none;stroke:#393a3b;stroke-width:0.5px;"/><path d="M106.269,368.977c-1.434,2.048 -9.285,5.571 -15.492,7.734c-2.406,0.839 -4.278,-0.5 -5.273,-0.296c-2.327,0.476 -1.564,3.107 -1.564,3.107" style="fill:none;stroke:#393a3b;stroke-width:0.5px;"/><path d="M145.334,317.223l-39.065,51.754c0,0 0.758,1.055 2.049,2.374" style="fill:none;stroke:#393a3b;stroke-width:0.5px;"/><path d="M185.792,278.031c0,0 -4.84,-10.456 -4.336,-11.32c0.583,-1 3.122,3.523 5.546,6.779c2.425,3.255 4.735,5.246 4.86,7.188c0.08,1.241 2.947,4.936 6.812,9.39c3.775,4.349 8.502,9.424 12.516,13.645c4.749,4.994 8.5,8.796 8.5,8.796c0,0 10.176,-9.818 19.236,-18.276c2.916,-2.722 5.717,-5.303 8.026,-7.37" style="fill:none;stroke:#393a3b;stroke-width:0.5px;"/><path d="M185.791,278.029c0,0 -2.127,-1.276 -3.002,-3.401" style="fill:none;stroke:#393a3b;stroke-width:0.5px;"/><path d="M185.237,270.979l-8.224,-14.382c-0.291,-0.509 -0.941,-0.687 -1.45,-0.395l-0.776,0.444c-0.51,0.293 -0.686,0.94 -0.395,1.45l5.629,9.842" style="fill:none;stroke:#393a3b;stroke-width:0.5px;"/><path d="M180.021,267.94c-2.108,6.57 2.904,12.288 6.852,16.333c3.949,4.046 2.741,2.848 2.741,2.848" style="fill:none;stroke:#393a3b;stroke-width:0.5px;"/><path d="M203.795,315.004c4.993,6.87 9.625,12.952 11.639,14.794c4.103,3.752 29.349,-19.596 29.349,-19.596" style="fill:none;stroke:#393a3b;stroke-width:0.5px;"/><path d="M193.838,284.154l-7.586,5.919" style="fill:none;stroke:#393a3b;stroke-width:0.5px;"/><path d="M542.066,363.017c0,2.538 -2.057,4.595 -4.594,4.595c-2.537,0 -4.595,-2.057 -4.595,-4.595c0,-2.537 2.058,-4.595 4.595,-4.595c2.537,0 4.594,2.058 4.594,4.595Z" style="fill:#393a3b;fill-rule:nonzero;"/><path d="M542.066,363.017c0,2.538 -2.057,4.595 -4.594,4.595c-2.537,0 -4.595,-2.057 -4.595,-4.595c0,-2.537 2.058,-4.595 4.595,-4.595c2.537,0 4.594,2.058 4.594,4.595Z" style="fill:none;stroke:#393a3b;stroke-width:0.5px;"/><path d="M534.024,366.047c0,0 -7.809,4.983 -8.283,15.748" style="fill:none;stroke:#393a3b;stroke-width:0.5px;"/><path d="M493.464,89.041c30.426,35.263 44.223,83.558 36.645,135.433" style="fill:none;stroke:#393a3b;stroke-width:0.5px;stroke-dasharray:3,3;"/><path d="M169.097,117.513c27.132,-33.595 66.2,-57.318 106.387,-71.164" style="fill:none;stroke:#393a3b;stroke-width:0.5px;stroke-dasharray:3,3;"/><path d="M145.414,286.863c-4.346,-9.492 -7.713,-19.606 -9.683,-30.301c-3.589,-19.484 -4.185,-37.7 -2.284,-54.651" style="fill:none;stroke:#393a3b;stroke-width:0.5px;stroke-dasharray:3,3;"/><path d="M173.309,193.45c0,1.939 -1.572,3.51 -3.51,3.51c-1.939,0 -3.51,-1.571 -3.51,-3.51c0,-1.938 1.571,-3.509 3.51,-3.509c1.938,0 3.51,1.571 3.51,3.509Z" style="fill:#393a3b;fill-rule:nonzero;"/><path d="M173.309,193.45c0,1.939 -1.572,3.51 -3.51,3.51c-1.939,0 -3.51,-1.571 -3.51,-3.51c0,-1.938 1.571,-3.509 3.51,-3.509c1.938,0 3.51,1.571 3.51,3.509Z" style="fill:none;stroke:#393a3b;stroke-width:0.5px;"/><path d="M235.539,176.682c0,2.97 -2.407,5.377 -5.377,5.377c-2.97,0 -5.377,-2.407 -5.377,-5.377c0,-2.97 2.407,-5.378 5.377,-5.378c2.97,0 5.377,2.408 5.377,5.378Z" style="fill:none;stroke:#393a3b;stroke-width:0.5px;stroke-dasharray:3,3;"/><path d="M237.704,105.922c0,1.195 -0.969,2.165 -2.165,2.165c-1.195,0 -2.164,-0.97 -2.164,-2.165c0,-1.196 0.969,-2.165 2.164,-2.165c1.196,0 2.165,0.969 2.165,2.165Z" style="fill:#393a3b;fill-rule:nonzero;"/><path d="M237.704,105.922c0,1.195 -0.969,2.165 -2.165,2.165c-1.195,0 -2.164,-0.97 -2.164,-2.165c0,-1.196 0.969,-2.165 2.164,-2.165c1.196,0 2.165,0.969 2.165,2.165Z" style="fill:none;stroke:#393a3b;stroke-width:0.5px;"/><path d="M428.289,42.347c0,1.412 -1.143,2.555 -2.555,2.555c-1.41,0 -2.553,-1.143 -2.553,-2.555c0,-1.41 1.143,-2.554 2.553,-2.554c1.412,0 2.555,1.144 2.555,2.554Z" style="fill:#393a3b;fill-rule:nonzero;"/><path d="M428.289,42.347c0,1.412 -1.143,2.555 -2.555,2.555c-1.41,0 -2.553,-1.143 -2.553,-2.555c0,-1.41 1.143,-2.554 2.553,-2.554c1.412,0 2.555,1.144 2.555,2.554Z" style="fill:none;stroke:#393a3b;stroke-width:0.5px;"/><path d="M484.623,72.485l-1.322,8.774c-0.703,4.664 -5.181,8.445 -10.002,8.445l-15.19,0l-11.387,5.825l0.877,-5.825c-4.821,0 -8.159,-3.781 -7.455,-8.445l1.322,-8.774c0.703,-4.664 5.18,-8.446 10.002,-8.446" style="fill:none;stroke:#393a3b;stroke-width:0.5px;"/><path d="M323.412,62.984c0,2.552 -2.07,4.621 -4.622,4.621c-2.553,0 -4.622,-2.069 -4.622,-4.621c0,-2.553 2.069,-4.622 4.622,-4.622c2.552,0 4.622,2.069 4.622,4.622Z" style="fill:none;stroke:#393a3b;stroke-width:0.5px;stroke-dasharray:2.9,2.9;"/><path d="M147.386,167.451l-15.994,0c-1.312,0 -2.045,-1.063 -1.637,-2.375l1.401,-4.506" style="fill:none;stroke:#393a3b;stroke-width:0.5px;"/><path d="M133.981,151.483c0.408,-1.312 1.802,-2.375 3.113,-2.375l20.584,0c1.311,0 2.044,1.063 1.636,2.375l-4.226,13.593" style="fill:none;stroke:#393a3b;stroke-width:0.5px;"/><path d="M133.981,151.483l10.554,6.797l14.779,-6.797" style="fill:none;stroke:#393a3b;stroke-width:0.5px;"/><path d="M509.411,241.283l-12.072,0c-0.99,0 -1.543,-0.803 -1.235,-1.793l1.057,-3.402" style="fill:none;stroke:#393a3b;stroke-width:0.5px;"/><path d="M499.293,229.23c0.308,-0.99 1.36,-1.793 2.351,-1.793l15.535,0c0.99,0 1.544,0.803 1.235,1.793l-3.19,10.26" style="fill:none;stroke:#393a3b;stroke-width:0.5px;"/><path d="M499.293,229.23l7.966,5.13l11.155,-5.13" style="fill:none;stroke:#393a3b;stroke-width:0.5px;"/><path d="M259.98,260.147c0,0 -1.7,1.763 -4.074,2.893" style="fill:none;stroke:#393a3b;stroke-width:0.5px;"/><path d="M464.489,379.798c0.086,1.29 0.132,1.997 0.132,1.997l-12.999,0c0,0 -0.27,-0.891 -0.308,-1.997l13.175,0Z" style="fill:#393a3b;fill-rule:nonzero;"/><path d="M464.489,379.798c0.086,1.29 0.132,1.997 0.132,1.997l-12.999,0c0,0 -0.27,-0.891 -0.308,-1.997l13.175,0Z" style="fill:none;stroke:#393a3b;stroke-width:0.5px;"/><path d="M475.164,379.798c-4.836,-3 -6.977,-5.042 -11.228,-8.252l0.185,2.751c4.251,3.209 5.332,4.498 10.168,7.498c3.667,0 8.667,0 8.667,0c0,0 0.375,-0.928 0.438,-1.959l0.001,-0.038l-8.231,0Z" style="fill:#393a3b;fill-rule:nonzero;"/><path d="M475.164,379.798c-4.836,-3 -6.977,-5.042 -11.228,-8.252l0.185,2.751c4.251,3.209 5.332,4.498 10.168,7.498c3.667,0 8.667,0 8.667,0c0,0 0.375,-0.928 0.438,-1.959l0.001,-0.038l-8.231,0Z" style="fill:none;stroke:#393a3b;stroke-width:0.5px;"/><path d="M394.197,381.795l-7.005,0" style="fill:#393a3b;fill-rule:nonzero;"/><path d="M394.197,381.795l-7.005,0" style="fill:none;stroke:#393a3b;stroke-width:0.5px;"/><path d="M483.956,381.795c0,0 0.375,-0.928 0.438,-1.959" style="fill:none;stroke:#f6f6f3;stroke-width:0.5px;"/><path d="M453.852,188.519c0,0 -1.39,6.725 0.104,5.11c0.888,-0.96 1.766,-2.671 2.296,-3.988l-2.4,-1.122Z" style="fill:#393a3b;fill-rule:nonzero;"/><path d="M453.852,188.519c0,0 -1.39,6.725 0.104,5.11c0.888,-0.96 1.766,-2.671 2.296,-3.988l-2.4,-1.122Z" style="fill:none;stroke:#393a3b;stroke-width:0.5px;"/><path d="M265.124,274.049c0,0 -8.032,2.883 -15.222,4.571" style="fill:none;stroke:#393a3b;stroke-width:0.5px;"/><path d="M99.884,379.643c-0.197,1.074 0.356,2.152 0.356,2.152l34.501,0c0,0 -0.327,-0.5 -0.592,-1.671l0.001,0c0,0 -18.632,0 -29.306,0c-3.921,0 -4.96,-0.481 -4.96,-0.481Z" style="fill:#393a3b;fill-rule:nonzero;"/><path d="M99.884,379.643c-0.197,1.074 0.356,2.152 0.356,2.152l34.501,0c0,0 -0.327,-0.5 -0.592,-1.671l0.001,0c0,0 -18.632,0 -29.306,0c-3.921,0 -4.96,-0.481 -4.96,-0.481Z" style="fill:none;stroke:#393a3b;stroke-width:0.5px;"/><path d="M84.088,377.413c-0.396,1.018 -0.097,2.119 -0.097,2.119c0,0 3.76,2.263 4.883,2.263c4.188,0 11.366,0 11.366,0c0,0 -0.399,-0.542 -0.397,-1.671c-3.488,0 -7.233,0 -10.387,0c-1.393,0 -5.368,-2.711 -5.368,-2.711Z" style="fill:#393a3b;fill-rule:nonzero;"/><path d="M84.088,377.413c-0.396,1.018 -0.097,2.119 -0.097,2.119c0,0 3.76,2.263 4.883,2.263c4.188,0 11.366,0 11.366,0c0,0 -0.399,-0.542 -0.397,-1.671c-3.488,0 -7.233,0 -10.387,0c-1.393,0 -5.368,-2.711 -5.368,-2.711Z" style="fill:none;stroke:#393a3b;stroke-width:0.5px;"/><path d="M117.698,373.947c-0.013,0.321 -0.283,0.571 -0.605,0.558c-0.321,-0.013 -0.571,-0.284 -0.557,-0.604c0.012,-0.322 0.283,-0.572 0.604,-0.559c0.321,0.014 0.571,0.284 0.558,0.605Z" style="fill:#393a3b;fill-rule:nonzero;"/><path d="M117.698,373.947c-0.013,0.321 -0.283,0.571 -0.605,0.558c-0.321,-0.013 -0.571,-0.284 -0.557,-0.604c0.012,-0.322 0.283,-0.572 0.604,-0.559c0.321,0.014 0.571,0.284 0.558,0.605Z" style="fill:none;stroke:#393a3b;stroke-width:0.5px;"/><path d="M114.675,375.05c-0.012,0.32 -0.283,0.57 -0.604,0.558c-0.321,-0.013 -0.571,-0.283 -0.558,-0.605c0.013,-0.321 0.283,-0.57 0.605,-0.557c0.32,0.012 0.57,0.283 0.557,0.604Z" style="fill:#393a3b;fill-rule:nonzero;"/><path d="M114.675,375.05c-0.012,0.32 -0.283,0.57 -0.604,0.558c-0.321,-0.013 -0.571,-0.283 -0.558,-0.605c0.013,-0.321 0.283,-0.57 0.605,-0.557c0.32,0.012 0.57,0.283 0.557,0.604Z" style="fill:none;stroke:#393a3b;stroke-width:0.5px;"/><path d="M111.653,376.153c-0.013,0.321 -0.283,0.571 -0.604,0.558c-0.321,-0.012 -0.571,-0.284 -0.558,-0.604c0.012,-0.322 0.283,-0.572 0.604,-0.558c0.321,0.013 0.571,0.283 0.558,0.604Z" style="fill:#393a3b;fill-rule:nonzero;"/><path d="M111.653,376.153c-0.013,0.321 -0.283,0.571 -0.604,0.558c-0.321,-0.012 -0.571,-0.284 -0.558,-0.604c0.012,-0.322 0.283,-0.572 0.604,-0.558c0.321,0.013 0.571,0.283 0.558,0.604Z" style="fill:none;stroke:#393a3b;stroke-width:0.5px;"/><path d="M123.961,367.845c1.766,1.721 1.141,7.635 3.828,6.959c2.688,-0.676 5.302,-2.007 5.885,-1.128" style="fill:none;stroke:#393a3b;stroke-width:0.5px;"/><path d="M99.846,380.299c0.046,0.817 0.394,1.496 0.394,1.496" style="fill:none;stroke:#f6f6f3;stroke-width:0.5px;"/><path d="M219.31,333.254c15.979,-11.526 25.473,-23.052 25.473,-23.052c0,0 -17.332,15.051 -27.863,19.832c0,0 1.084,1.449 2.39,3.22Z" style="fill:#393a3b;fill-rule:nonzero;"/><path d="M219.31,333.254c15.979,-11.526 25.473,-23.052 25.473,-23.052c0,0 -17.332,15.051 -27.863,19.832c0,0 1.084,1.449 2.39,3.22Z" style="fill:none;stroke:#0c57fb;stroke-width:0.5px;"/><path d="M457.003,183.256c-1.019,-0.34 -2.58,-0.154 -2.919,-1.511c-0.34,-1.358 -1.337,-2.485 -2.1,-3.689c-0.381,-0.604 -0.36,-3.247 -1.443,-2.062c-1.082,1.185 0.284,5.19 0.284,5.19c0,0 -11.318,1.291 -11.454,1.97c-0.136,0.679 4.543,3.766 9.262,4.008" style="fill:none;stroke:#393a3b;stroke-width:0.5px;"/><path d="M222.049,381.795c-24.468,0 -47.249,-63.792 -47.249,-63.792c0,0 16.364,54.458 36.239,63.792c4.5,0 11.01,0 11.01,0Z" style="fill:#393a3b;fill-rule:nonzero;"/><path d="M222.049,381.795c-24.468,0 -47.249,-63.792 -47.249,-63.792c0,0 16.364,54.458 36.239,63.792c4.5,0 11.01,0 11.01,0Z" style="fill:#0c57fb;stroke:#0c57fb;stroke-width:0.5px;"/><path d="M238.167,346.814c-0.978,2.105 -0.064,4.604 2.041,5.583c2.105,0.977 4.605,0.063 5.583,-2.041c0.978,-2.106 0.064,-4.606 -2.041,-5.583c-2.105,-0.979 -4.605,-0.065 -5.583,2.041Z" style="fill:#393a3b;fill-rule:nonzero;"/><path d="M238.167,346.814c-0.978,2.105 -0.064,4.604 2.041,5.583c2.105,0.977 4.605,0.063 5.583,-2.041c0.978,-2.106 0.064,-4.606 -2.041,-5.583c-2.105,-0.979 -4.605,-0.065 -5.583,2.041Z" style="fill:#0c57fb;stroke:#0c57fb;stroke-width:0.5px;"/><path d="M243.037,352.653c0,0 2.308,9.657 2.585,29.142" style="fill:none;stroke:#393a3b;stroke-width:0.5px;stroke-dasharray:3,3;"/><path d="M249.902,381.795c0,0 1.52,-5.586 3.012,-15.518" style="fill:none;stroke:#f6f6f3;stroke-width:0.5px;"/><path d="M256.131,363.078c0,1.767 -1.431,3.199 -3.197,3.199c-1.767,0 -3.199,-1.432 -3.199,-3.199c0,-1.767 1.432,-3.199 3.199,-3.199c1.766,0 3.197,1.432 3.197,3.199Z" style="fill:#f6f6f3;fill-rule:nonzero;"/><path d="M378.997,381.795l168.283,0" style="fill:none;stroke:#393a3b;stroke-width:0.5px;"/><path d="M287.709,381.795l-219.418,0" style="fill:none;stroke:#393a3b;stroke-width:0.5px;"/><path d="M557.033,381.795l4.497,0" style="fill:none;stroke:#393a3b;stroke-width:0.5px;"/><path d="M60.288,381.795l-3.25,0" style="fill:none;stroke:#393a3b;stroke-width:0.5px;"/></g></svg>